<svg width="368" height="263" viewBox="0 0 368 263" fill="none" xmlns="http://www.w3.org/2000/svg">
<path d="M351.421 31.3544C341.859 25.0627 328.375 19.4681 311.338 14.727C277.217 5.23014 231.993 0 183.998 0C136.003 0 90.7801 5.23073 56.659 14.727C39.6232 19.4681 26.138 25.0627 16.5758 31.3544C5.57749 38.5924 0 46.5781 0 55.0887V120.875C0 129.386 5.57749 137.372 16.5765 144.609C26.1387 150.901 39.6232 156.496 56.6597 161.237C89.0716 170.258 131.504 175.425 176.812 175.921V199.506H152.026C149.28 187.641 136.508 178.641 121.213 178.641C103.92 178.641 89.8529 190.145 89.8529 204.286C89.8529 210.434 92.5195 216.256 97.2373 220.82C92.4602 225.443 89.8435 231.302 89.8529 237.355C89.8529 251.496 103.92 263 121.213 263C136.508 263 149.28 253.999 152.026 242.135H215.974C218.72 254 231.492 263 246.787 263C264.08 263 278.147 251.495 278.147 237.355C278.147 231.207 275.481 225.385 270.763 220.82C275.54 216.197 278.157 210.338 278.147 204.286C278.147 190.145 264.08 178.641 246.787 178.641C231.492 178.641 218.72 187.641 215.974 199.506H191.188V175.921C236.496 175.425 278.928 170.258 311.34 161.237C328.376 156.496 341.861 150.901 351.423 144.609C362.423 137.372 368 129.386 368 120.875V55.0887C367.998 46.5781 362.42 38.5924 351.421 31.3544ZM222.653 211.262C223.63 211.262 224.597 211.099 225.495 210.783C226.393 210.467 227.202 210.005 227.874 209.424C228.545 208.844 229.065 208.157 229.402 207.407C229.738 206.656 229.884 205.858 229.83 205.06C229.812 204.802 229.803 204.544 229.802 204.286C229.802 196.628 237.421 190.397 246.787 190.397C256.152 190.397 263.771 196.628 263.771 204.286C263.771 208.98 260.898 213.324 256.085 215.907C255.089 216.442 254.27 217.171 253.704 218.029C253.138 218.887 252.842 219.846 252.842 220.821C252.842 221.796 253.138 222.755 253.704 223.613C254.27 224.471 255.089 225.2 256.085 225.735C260.898 228.318 263.771 232.662 263.771 237.355C263.771 245.014 256.152 251.245 246.787 251.245C237.421 251.245 229.802 245.014 229.802 237.355C229.802 237.096 229.813 236.838 229.83 236.582C229.884 235.784 229.739 234.985 229.403 234.235C229.066 233.484 228.547 232.797 227.875 232.217C227.203 231.636 226.393 231.174 225.496 230.858C224.598 230.542 223.631 230.379 222.653 230.38H145.345C144.367 230.38 143.4 230.543 142.503 230.859C141.605 231.175 140.796 231.637 140.124 232.218C139.453 232.798 138.933 233.485 138.596 234.235C138.26 234.985 138.114 235.784 138.168 236.582C138.184 236.838 138.196 237.096 138.196 237.355C138.196 245.014 130.577 251.245 121.211 251.245C111.846 251.245 104.226 245.014 104.226 237.355C104.226 232.662 107.1 228.318 111.913 225.735C112.909 225.2 113.727 224.471 114.294 223.613C114.86 222.755 115.156 221.796 115.156 220.821C115.156 219.846 114.86 218.887 114.294 218.029C113.727 217.171 112.909 216.442 111.913 215.907C107.1 213.324 104.226 208.98 104.226 204.286C104.226 196.628 111.846 190.397 121.211 190.397C130.577 190.397 138.196 196.628 138.196 204.286C138.196 204.546 138.184 204.804 138.168 205.06C138.114 205.858 138.259 206.657 138.595 207.407C138.931 208.158 139.451 208.844 140.123 209.425C140.795 210.006 141.604 210.468 142.502 210.784C143.4 211.1 144.367 211.263 145.345 211.262H222.653ZM183.999 164.209C174.453 164.209 166.687 157.858 166.687 150.051C166.687 142.245 174.453 135.894 183.999 135.894C193.545 135.894 201.311 142.245 201.311 150.051C201.311 157.858 193.545 164.209 183.999 164.209ZM353.623 120.875C353.623 139.473 296.267 159.997 210.965 163.64C214.057 159.558 215.692 154.852 215.686 150.051C215.686 148.198 215.442 146.392 214.988 144.649C242.884 143.153 268.796 139.749 290.41 134.705C294.227 133.814 296.439 130.562 295.35 127.44C294.26 124.318 290.285 122.51 286.466 123.401C264.285 128.577 237.231 131.953 208.05 133.208C202.234 127.662 193.613 124.138 183.999 124.138C174.335 124.138 165.672 127.699 159.855 133.296C140.076 132.525 121.28 130.798 103.962 128.133C100.065 127.532 96.3037 129.633 95.5698 132.823C94.836 136.013 97.4034 139.085 101.305 139.686C117.449 142.17 134.796 143.869 152.976 144.769C152.535 146.506 152.312 148.276 152.313 150.051C152.307 154.852 153.942 159.559 157.034 163.64C71.7304 159.997 14.375 139.473 14.375 120.875V77.313L14.4727 77.38C15.1619 77.8724 15.8631 78.3535 16.5758 78.823C17.5366 79.4513 18.5156 80.0608 19.5119 80.651L19.527 80.6598C20.0631 80.979 20.6101 81.2964 21.1671 81.6121L21.4158 81.7519C21.9398 82.0464 22.471 82.3397 23.0129 82.6307C23.1221 82.6895 23.2343 82.7483 23.345 82.807C23.8919 83.098 24.4454 83.3883 25.0103 83.6758L25.254 83.798C33.7481 88.0936 44.2577 91.9989 56.6582 95.4504C90.7794 104.947 136.002 110.177 183.998 110.177C231.994 110.177 277.217 104.947 311.338 95.4504C323.74 91.9989 334.25 88.093 342.745 83.7969L342.986 83.6764C343.552 83.3884 344.106 83.098 344.654 82.8064L344.984 82.6313C345.526 82.3403 346.058 82.047 346.582 81.7525L346.831 81.6126C347.388 81.297 347.935 80.9796 348.471 80.6604L348.486 80.6516C349.482 80.0615 350.461 79.452 351.422 78.8236C352.135 78.3539 352.836 77.8728 353.525 77.3806L353.623 77.3136V120.875ZM46.1796 79.5219C52.4406 77.1813 61.0045 74.4934 72.388 71.883C103.318 64.7907 142.956 60.8855 183.999 60.8855C225.042 60.8855 264.68 64.7913 295.609 71.883C306.993 74.4928 315.558 77.1807 321.818 79.5219C292.074 90.3625 243.383 98.4222 183.999 98.4222C124.614 98.4222 75.9243 90.3619 46.1796 79.5219ZM353.578 55.9504C353.546 56.2933 353.496 56.635 353.427 56.9743L353.418 57.0278C353.34 57.3887 353.243 57.7466 353.127 58.1005C353.044 58.3564 352.952 58.6103 352.851 58.8617L352.792 59.0092C352.634 59.382 352.457 59.7495 352.263 60.1108C352.187 60.2536 352.104 60.3958 352.021 60.5387C351.856 60.8232 351.682 61.1065 351.494 61.3868L351.444 61.4621C348.453 65.8764 342.807 69.7376 337.201 72.7529C329.756 69.2456 317.816 64.766 299.491 60.5639C267.334 53.1907 226.318 49.1309 184 49.1309C141.681 49.1309 100.666 53.1913 68.5075 60.5645C50.183 64.766 38.2439 69.2456 30.7984 72.7535C25.1929 69.7387 19.5471 65.877 16.5557 61.4627L16.5053 61.3874C16.317 61.1065 16.1431 60.8232 15.9771 60.5381C15.8951 60.3958 15.8125 60.2542 15.737 60.1119C15.6723 59.992 15.6112 59.8715 15.5508 59.751C15.4279 59.5042 15.3108 59.2573 15.2073 59.0104C15.1864 58.9616 15.1678 58.9117 15.1476 58.8629C15.0179 58.5422 14.9035 58.2175 14.8048 57.8895C14.7174 57.605 14.6426 57.3179 14.5805 57.029L14.5712 56.9755C14.5026 56.6362 14.4525 56.2945 14.421 55.9516C14.3921 55.6645 14.3767 55.3767 14.375 55.0887C14.375 34.5925 84.0368 11.7558 183.999 11.7558C283.961 11.7558 353.623 34.5925 353.623 55.0887C353.623 55.3755 353.604 55.663 353.578 55.9504Z" fill="#F1CDB3"/>
<path d="M295.483 38.3368C295.203 37.1983 294.521 36.152 293.521 35.3274C293.187 35.0557 292.821 34.8115 292.428 34.5985C291.643 34.172 290.765 33.8746 289.841 33.7227C288.914 33.5699 287.958 33.5699 287.031 33.7227C286.571 33.7991 286.125 33.9108 285.687 34.0577C285.256 34.2047 284.839 34.3869 284.451 34.5985C284.055 34.8101 283.689 35.057 283.351 35.3274C283.02 35.5977 282.726 35.9034 282.46 36.2208C281.939 36.8626 281.575 37.5813 281.389 38.3368C281.296 38.7189 281.253 39.101 281.253 39.483C281.253 39.871 281.297 40.253 281.389 40.6351C281.575 41.3906 281.939 42.1093 282.46 42.7511C282.726 43.0685 283.02 43.3683 283.351 43.6446C283.689 43.915 284.056 44.156 284.451 44.3734C284.839 44.585 285.256 44.7673 285.687 44.9142C286.125 45.0612 286.572 45.1728 287.031 45.2492C287.498 45.3257 287.973 45.3668 288.44 45.3668C288.907 45.3668 289.382 45.3257 289.841 45.2492C290.301 45.1728 290.755 45.0612 291.185 44.9142C291.617 44.7673 292.033 44.585 292.428 44.3734C292.816 44.156 293.191 43.915 293.521 43.6446C293.852 43.3683 294.154 43.0685 294.412 42.7511C294.934 42.1093 295.297 41.3906 295.483 40.6351C295.577 40.253 295.626 39.871 295.626 39.483C295.626 39.1004 295.577 38.7183 295.483 38.3368Z" fill="#F1CDB3"/>
<path d="M266.695 29.3954C241.932 25.5854 213.746 23.571 185.187 23.571C145.659 23.571 107.447 27.4081 77.5893 34.3763C73.7727 35.2674 71.5604 38.5197 72.6501 41.6414C73.5499 44.2247 76.4278 45.9082 79.5573 45.9082C80.2099 45.9082 80.874 45.8353 81.5331 45.6813C110.144 39.0046 146.954 35.3274 185.186 35.3274C212.87 35.3274 240.135 37.2712 264.037 40.949C267.939 41.548 271.695 39.4495 272.43 36.259C273.164 33.0685 270.596 29.9967 266.695 29.3954Z" fill="#F1CDB3"/>
<path d="M86.6089 128.451C86.5154 128.074 86.3789 127.704 86.1992 127.346C86.0195 126.993 85.7967 126.652 85.5379 126.335C85.2766 126.012 84.9755 125.713 84.6395 125.441C84.3089 125.171 83.9423 124.924 83.547 124.706C83.1589 124.495 82.742 124.318 82.31 124.171C81.8768 124.023 81.4266 123.911 80.966 123.836C80.0388 123.684 79.0836 123.684 78.1564 123.836C77.6957 123.907 77.2428 124.025 76.8123 124.171C76.3739 124.318 75.957 124.495 75.5689 124.706C75.1736 124.924 74.807 125.171 74.4764 125.441C74.1457 125.712 73.8439 126.011 73.5851 126.335C73.3264 126.652 73.1036 126.993 72.9239 127.346C72.7442 127.704 72.6076 128.074 72.5142 128.451C72.4207 128.827 72.3704 129.215 72.3704 129.597C72.3749 130.368 72.5629 131.13 72.9239 131.842C73.1036 132.201 73.3264 132.542 73.5851 132.859C73.8439 133.182 74.1457 133.482 74.4764 133.753C74.807 134.023 75.1736 134.27 75.5689 134.481C75.957 134.699 76.3739 134.875 76.8123 135.022C77.2436 135.169 77.6957 135.287 78.1564 135.357C78.6164 135.434 79.0907 135.475 79.5572 135.475C80.0244 135.475 80.4995 135.434 80.966 135.357C81.4266 135.283 81.8768 135.17 82.31 135.022C82.7441 134.877 83.1586 134.696 83.547 134.481C83.9407 134.27 84.3068 134.025 84.6395 133.753C85.3099 133.207 85.8402 132.558 86.1992 131.842C86.5622 131.131 86.7476 130.368 86.7447 129.597C86.7447 129.214 86.7016 128.827 86.6089 128.451Z" fill="#F1CDB3"/>
</svg>
